# xmcd
#
# Track frame offsets:
#	150
#	13039
#	27180
#	36669
#	48374
#	60113
#	72443
#	82709
#	94112
#	107221
#	118807
#	131824
#	144603
#	156202
#	167436
#	178933
#	191391
#	203025
#	214376
#	224933
#	236755
#	249957
#
# Disc length: 3436 seconds
#
# Revision: 1
# Processed by: cddbd v1.5.2PL0 Copyright (c) Steve Scherf et al.
# Submitted via: audiograbber 1.83.01
#
DISCID=440d6a16
DTITLE=Various Artist - Stompin' 25: More Jump Blues Obscurities
DYEAR=1900
DGENRE=Blues
TTITLE0=King James - I Just Wanta Love
TTITLE1=Georgia Lane - Oo Wee Mr. Jeff
TTITLE2=Eunice Davis - Let's Have A Party
TTITLE3=Tom 'Shy Guy' Douglas - Raid On Cedar Street
TTITLE4=Tangerine - Cadillac Baby
TTITLE5=Eunice Davis - Every Time Your Lips Meet Mine
TTITLE6=King James - Wild Wooly Woman
TTITLE7=Emmett Hobson - Looka Here, Mattie Bee
TTITLE8=Choker Campbell - Have You Seen My Baby
TTITLE9=Edith Mackey - Skillet's Gonna Fry
TTITLE10=Mamie Thomas - Miss Good Blues
TTITLE11=Billie McAllister - Well, Alright Baby
TTITLE12=George Benson - It Should Have Been Me
TTITLE13=Don Archer - Fathead Blues
TTITLE14=Dottie Johnson - It's A Shame
TTITLE15=Frank Haywood - Rock-A-Bye Baby
TTITLE16=Cliff Butler - You Name It
TTITLE17=Bill Walker - Wineo
TTITLE18=Velma Cross - I'll Be Oh So Good
TTITLE19=Rose Brown and Jimmie Harris - Back From Korea
TTITLE20=Baby Doll - Down By The Woodshed
TTITLE21=Margie Anderson - Yes I Know
EXTD=
EXTT0=
EXTT1=
EXTT2=
EXTT3=
EXTT4=
EXTT5=
EXTT6=
EXTT7=
EXTT8=
EXTT9=
EXTT10=
EXTT11=
EXTT12=
EXTT13=
EXTT14=
EXTT15=
EXTT16=
EXTT17=
EXTT18=
EXTT19=
EXTT20=
EXTT21=
PLAYORDER=
